<?xml version="1.0" encoding="UTF-8" standalone="no"?>
<!DOCTYPE svg PUBLIC "-//W3C//DTD SVG 1.1//EN" "http://www.w3.org/Graphics/SVG/1.1/DTD/svg11.dtd">
<svg width="100%" height="100%" viewBox="0 0 65 65" version="1.1" xmlns="http://www.w3.org/2000/svg" xmlns:xlink="http://www.w3.org/1999/xlink" xml:space="preserve" style="fill-rule:evenodd;clip-rule:evenodd;stroke-linejoin:round;stroke-miterlimit:1.41421;">
    <g transform="matrix(1,0,0,1,-384,-5114.86)">
        <path d="M449,5114.86L449,5179.86L384,5179.86L384,5114.86L449,5114.86ZM437.145,5151.85C437.24,5150.42 437.124,5149.06 436.794,5147.75C436.46,5146.44 435.925,5145.28 435.175,5144.26C434.423,5143.23 433.468,5142.42 432.302,5141.81C431.133,5141.2 429.767,5140.9 428.21,5140.9C426.799,5140.9 425.524,5141.15 424.368,5141.65C423.213,5142.15 422.221,5142.84 421.384,5143.71C420.549,5144.57 419.914,5145.6 419.455,5146.79C419.006,5147.98 418.775,5149.27 418.775,5150.65C418.775,5152.07 418.997,5153.38 419.436,5154.57C419.881,5155.77 420.504,5156.78 421.306,5157.64C422.13,5158.5 423.11,5159.15 424.28,5159.62C425.453,5160.08 426.759,5160.32 428.21,5160.32C430.291,5160.32 432.077,5159.84 433.543,5158.89C435.025,5157.93 436.112,5156.35 436.828,5154.13L432.371,5154.13C432.2,5154.7 431.753,5155.25 431.02,5155.77C430.281,5156.28 429.399,5156.54 428.379,5156.54C426.96,5156.54 425.864,5156.16 425.107,5155.43C424.347,5154.69 423.854,5153.31 423.854,5151.85L437.145,5151.85ZM408.153,5159.84C409.293,5159.84 410.405,5159.7 411.477,5159.41C412.561,5159.13 413.529,5158.69 414.371,5158.09C415.207,5157.5 415.885,5156.73 416.383,5155.79C416.876,5154.86 417.123,5153.75 417.123,5152.46C417.123,5150.86 416.745,5149.51 415.973,5148.37C415.204,5147.25 414.045,5146.45 412.479,5146C413.628,5145.46 414.489,5144.76 415.074,5143.91C415.656,5143.05 415.947,5141.98 415.947,5140.7C415.947,5139.52 415.751,5138.52 415.364,5137.72C414.967,5136.9 414.413,5136.26 413.704,5135.78C412.984,5135.29 412.132,5134.94 411.134,5134.73C410.131,5134.51 409.033,5134.41 407.816,5134.41L395.823,5134.41L395.823,5159.84L408.153,5159.84ZM407.513,5148.51C408.719,5148.51 409.699,5148.78 410.434,5149.34C411.167,5149.9 411.536,5150.84 411.536,5152.15C411.536,5152.82 411.428,5153.37 411.201,5153.79C410.976,5154.23 410.666,5154.56 410.291,5154.81C409.916,5155.07 409.472,5155.24 408.972,5155.35C408.478,5155.46 407.954,5155.51 407.401,5155.51L401.424,5155.51L401.424,5148.51L407.513,5148.51ZM430.92,5145.75C430.318,5145.08 429.3,5144.72 428.058,5144.72C427.25,5144.72 426.58,5144.86 426.045,5145.14C425.522,5145.41 425.092,5145.75 424.763,5146.15C424.438,5146.56 424.215,5146.99 424.085,5147.45C423.956,5147.9 423.878,5148.3 423.854,5148.66L432.086,5148.66C431.965,5147.37 431.524,5146.42 430.92,5145.75ZM406.664,5138.74C407.16,5138.74 407.644,5138.77 408.104,5138.86C408.575,5138.94 408.979,5139.09 409.338,5139.31C409.699,5139.52 409.985,5139.82 410.2,5140.19C410.409,5140.57 410.513,5141.06 410.513,5141.66C410.513,5142.72 410.2,5143.5 409.556,5143.97C408.906,5144.45 408.084,5144.68 407.092,5144.68L401.424,5144.68L401.424,5138.74L406.664,5138.74ZM433.131,5138.62L433.131,5136.11L422.82,5136.11L422.82,5138.62L433.131,5138.62Z" style="fill:white;"/>
    </g>
</svg>
