<?xml version="1.0" encoding="UTF-8" standalone="no"?><!DOCTYPE svg PUBLIC "-//W3C//DTD SVG 1.1//EN" "http://www.w3.org/Graphics/SVG/1.1/DTD/svg11.dtd"><svg width="100%" height="100%" viewBox="0 0 65 65" version="1.1" xmlns="http://www.w3.org/2000/svg" xmlns:xlink="http://www.w3.org/1999/xlink" xml:space="preserve" style="fill-rule:evenodd;clip-rule:evenodd;stroke-linejoin:round;stroke-miterlimit:1.41421;"><rect id="Artboard1" x="0" y="0" width="65" height="65" style="fill:none;"/><clipPath id="_clip1"><rect id="Artboard11" x="0" y="0" width="65" height="65"/></clipPath><g clip-path="url(#_clip1)"><path d="M65,0l0,65l-65,0l0,-65l65,0Zm-22.174,48.1c0,0 -1.337,-1.597 -2.452,-3.008c4.866,-1.375 6.723,-4.42 6.723,-4.42c-1.523,1.002 -2.971,1.708 -4.271,2.191c-1.857,0.78 -3.64,1.3 -5.386,1.597c-3.566,0.669 -6.834,0.483 -9.62,-0.037c-2.117,-0.409 -3.937,-1.003 -5.46,-1.597c-0.854,-0.334 -1.783,-0.743 -2.711,-1.263c-0.112,-0.074 -0.223,-0.111 -0.335,-0.186c-0.074,-0.037 -0.111,-0.074 -0.148,-0.111c-0.669,-0.372 -1.04,-0.632 -1.04,-0.632c0,0 1.783,2.972 6.5,4.383c-1.115,1.412 -2.489,3.083 -2.489,3.083c-8.208,-0.26 -11.328,-5.646 -11.328,-5.646c0,-11.96 5.348,-21.654 5.348,-21.654c5.349,-4.011 10.437,-3.9 10.437,-3.9l0.372,0.446c-6.686,1.931 -9.769,4.866 -9.769,4.866c0,0 0.817,-0.446 2.192,-1.078c3.974,-1.745 7.131,-2.228 8.431,-2.34c0.223,-0.037 0.409,-0.074 0.631,-0.074c2.266,-0.297 4.829,-0.371 7.503,-0.074c3.529,0.408 7.317,1.448 11.18,3.566c0,0 -2.934,-2.786 -9.248,-4.718l0.52,-0.594c0,0 5.088,-0.111 10.437,3.9c0,0 5.348,9.694 5.348,21.654c0,0 -3.157,5.386 -11.365,5.646Z" style="fill:#fff;"/><path d="M25.554,30.754c-2.117,0 -3.788,1.858 -3.788,4.123c0,2.266 1.708,4.123 3.788,4.123c2.117,0 3.789,-1.857 3.789,-4.123c0.037,-2.265 -1.672,-4.123 -3.789,-4.123Z" style="fill:#fff;fill-rule:nonzero;"/><path d="M39.111,30.754c-2.117,0 -3.788,1.858 -3.788,4.123c0,2.266 1.708,4.123 3.788,4.123c2.118,0 3.789,-1.857 3.789,-4.123c0,-2.265 -1.671,-4.123 -3.789,-4.123Z" style="fill:#fff;fill-rule:nonzero;"/></g></svg>