<?xml version="1.0" encoding="UTF-8" standalone="no"?><!DOCTYPE svg PUBLIC "-//W3C//DTD SVG 1.1//EN" "http://www.w3.org/Graphics/SVG/1.1/DTD/svg11.dtd"><svg width="100%" height="100%" viewBox="0 0 100 100" version="1.1" xmlns="http://www.w3.org/2000/svg" xmlns:xlink="http://www.w3.org/1999/xlink" xml:space="preserve" style="fill-rule:evenodd;clip-rule:evenodd;stroke-linejoin:round;stroke-miterlimit:1.41421;"><rect id="Artboard1" x="0" y="0" width="100" height="100" style="fill:none;"/><clipPath id="_clip1"><rect id="Artboard11" x="0" y="0" width="100" height="100"/></clipPath><g clip-path="url(#_clip1)"><path d="M100,0l0,100l-100,0l0,-100l100,0Zm-50,77.521c-15.175,0 -27.521,-12.346 -27.521,-27.521c0,-15.175 12.346,-27.521 27.521,-27.521c15.175,0 27.521,12.346 27.521,27.521c0,15.175 -12.346,27.521 -27.521,27.521Zm9.182,-5.846c-0.349,-2.063 -1.714,-9.25 -5.014,-17.827c-0.052,0.018 -0.104,0.035 -0.155,0.053c-13.259,4.62 -18.019,13.815 -18.442,14.68c6.715,5.236 15.774,6.423 23.611,3.094l0,0Zm14.028,-17.907c-0.804,-0.254 -7.276,-2.185 -14.642,-1.005c3.074,8.449 4.325,15.33 4.566,16.76c5.274,-3.566 9.028,-9.215 10.076,-15.755Zm-40.674,11.986c0.532,-0.912 6.984,-11.594 19.108,-15.513c0.306,-0.099 0.615,-0.192 0.926,-0.279c-0.59,-1.336 -1.233,-2.673 -1.906,-3.99c-11.74,3.513 -23.131,3.367 -24.159,3.346c-0.007,0.238 -0.013,0.477 -0.013,0.718c-0.004,5.806 2.151,11.41 6.044,15.718l0,0Zm35.973,-30.193c3.192,4.063 4.952,9.077 4.996,14.253c-0.776,-0.164 -8.547,-1.74 -16.369,-0.757c-0.165,-0.402 -0.334,-0.807 -0.507,-1.213c-0.488,-1.146 -1.012,-2.285 -1.559,-3.405c8.691,-3.548 12.631,-8.598 13.126,-9.269l0.158,0.195l0.155,0.196Zm-41.52,9.66c1.052,0.014 10.737,0.056 21.732,-2.864c-3.895,-6.924 -8.095,-12.745 -8.715,-13.595c-6.577,3.102 -11.492,9.165 -13.017,16.459Zm17.502,-18.039c0.65,0.87 4.92,6.684 8.772,13.761c8.358,-3.133 11.897,-7.889 12.32,-8.491c-5.74,-5.097 -13.629,-7.069 -21.092,-5.27l0,0Z" style="fill:#fff;"/></g></svg>