<?xml version="1.0" encoding="UTF-8" standalone="no"?><!DOCTYPE svg PUBLIC "-//W3C//DTD SVG 1.1//EN" "http://www.w3.org/Graphics/SVG/1.1/DTD/svg11.dtd"><svg width="100%" height="100%" viewBox="0 0 65 65" version="1.1" xmlns="http://www.w3.org/2000/svg" xmlns:xlink="http://www.w3.org/1999/xlink" xml:space="preserve" style="fill-rule:evenodd;clip-rule:evenodd;stroke-linejoin:round;stroke-miterlimit:1.41421;"><rect id="Artboard1" x="0" y="0" width="65" height="65" style="fill:none;"/><clipPath id="_clip1"><rect id="Artboard11" x="0" y="0" width="65" height="65"/></clipPath><g clip-path="url(#_clip1)"><path id="mcm" d="M0,0l65,0l0,65l-65,0l0,-65Zm52.424,34.524c0,-3.362 0,-6.725 -0.001,-10.088c0,-0.519 -0.004,-0.524 -0.482,-0.307c-3.294,1.499 -6.587,3.003 -9.885,4.492c-0.305,0.138 -0.374,0.327 -0.37,0.632c0.03,2.618 0.039,5.236 0.079,7.855c0.006,0.402 -0.134,0.609 -0.481,0.795c-2.281,1.226 -4.549,2.477 -6.826,3.711c-0.276,0.149 -0.421,0.312 -0.42,0.658c0.018,3.592 0.016,7.183 0.022,10.775c0.001,0.476 0.022,0.488 0.445,0.292c5.816,-2.694 11.629,-5.392 17.45,-8.074c0.374,-0.172 0.482,-0.388 0.48,-0.781c-0.014,-3.32 -0.008,-6.64 -0.008,-9.96l-0.003,0Zm-39.84,-0.021c0,-3.363 0,-6.726 0.001,-10.089c0,-0.497 0.005,-0.502 0.461,-0.294c3.295,1.498 6.587,3.002 9.886,4.493c0.291,0.132 0.395,0.3 0.391,0.618c-0.032,2.618 -0.04,5.236 -0.08,7.854c-0.007,0.419 0.136,0.634 0.499,0.829c2.258,1.21 4.497,2.452 6.752,3.666c0.345,0.186 0.479,0.398 0.477,0.799c-0.021,3.535 -0.017,7.069 -0.022,10.604c-0.001,0.561 -0.003,0.56 -0.504,0.327c-5.725,-2.651 -11.447,-5.309 -17.181,-7.941c-0.514,-0.236 -0.705,-0.497 -0.699,-1.079c0.033,-3.262 0.016,-6.525 0.016,-9.787l0.003,0Zm0.68,-13.465c0.081,-0.137 0.228,-0.17 0.352,-0.233c6.072,-3.047 12.146,-6.092 18.216,-9.145c0.278,-0.139 0.502,-0.166 0.798,-0.023c6.338,3.056 12.682,6.102 19.025,9.149c0.103,0.05 0.21,0.093 0.308,0.152c0.106,0.062 0.29,0.071 0.289,0.216c0,0.149 -0.184,0.153 -0.295,0.201c-3.523,1.512 -7.047,3.02 -10.57,4.53c-0.513,0.219 -1.031,0.427 -1.536,0.664c-0.278,0.132 -0.499,0.102 -0.756,-0.063c-2.108,-1.35 -4.229,-2.68 -6.331,-4.039c-0.373,-0.241 -0.651,-0.258 -1.042,-0.029c-2.236,1.304 -4.491,2.578 -6.736,3.867c-0.225,0.13 -0.413,0.177 -0.674,0.053c-3.565,-1.695 -7.136,-3.378 -10.704,-5.067c-0.124,-0.058 -0.278,-0.082 -0.344,-0.233Z" style="fill:#fff;"/></g></svg>