<svg xmlns="http://www.w3.org/2000/svg" viewBox="0 0 2745.34 2745.34"><defs><style>.a{fill:#555;}.b{fill:#f5f;}.c{fill:#5f5;}.d{fill:#5ff;}.e{fill:#f55;}.f{fill:#ff5;}.g{fill:#fff;}</style></defs><title>papermc-logo</title><rect class="a" x="500" y="500" width="2000" height="2000" rx="100" ry="100" transform="translate(-464.45 2433.33) rotate(-75)"/><rect class="a" x="500" y="500" width="2000" height="2000" rx="100" ry="100" transform="translate(-464.45 2433.33) rotate(-75)"/><rect class="a" x="500" y="500" width="2000" height="2000" rx="100" ry="100" transform="matrix(0.5, -0.87, 0.87, 0.5, -676.37, 1921.71)"/><rect class="a" x="500" y="500" width="2000" height="2000" rx="100" ry="100" transform="matrix(0.5, -0.87, 0.87, 0.5, -676.37, 1921.71)"/><rect class="a" x="500" y="500" width="2000" height="2000" rx="100" ry="100" transform="translate(-748.65 1372.67) rotate(-45)"/><rect class="a" x="500" y="500" width="2000" height="2000" rx="100" ry="100" transform="translate(-748.65 1372.67) rotate(-45)"/><rect class="a" x="500" y="500" width="2000" height="2000" rx="100" ry="100" transform="translate(-676.37 823.63) rotate(-30)"/><rect class="a" x="500" y="500" width="2000" height="2000" rx="100" ry="100" transform="translate(-676.37 823.63) rotate(-30)"/><rect class="a" x="500" y="500" width="2000" height="2000" rx="100" ry="100" transform="translate(-464.45 312.01) rotate(-15)"/><rect class="a" x="500" y="500" width="2000" height="2000" rx="100" ry="100" transform="translate(-464.45 312.01) rotate(-15)"/><rect class="a" x="372.67" y="372.67" width="2000" height="2000" rx="100" ry="100"/><rect class="a" x="372.67" y="372.67" width="2000" height="2000" rx="100" ry="100"/><rect class="b" x="500" y="500" width="2000" height="2000" rx="100" ry="100" transform="translate(-464.45 2433.33) rotate(-75)"/><rect class="c" x="500" y="500" width="2000" height="2000" rx="100" ry="100" transform="matrix(0.5, -0.87, 0.87, 0.5, -676.37, 1921.71)"/><rect class="d" x="500" y="500" width="2000" height="2000" rx="100" ry="100" transform="translate(-748.65 1372.67) rotate(-45)"/><rect class="e" x="500" y="500" width="2000" height="2000" rx="100" ry="100" transform="translate(-676.37 823.63) rotate(-30)"/><rect class="f" x="500" y="500" width="2000" height="2000" rx="100" ry="100" transform="translate(-464.45 312.01) rotate(-15)"/><rect class="a" x="372.67" y="372.67" width="2000" height="2000" rx="100" ry="100"/><path class="a" d="M2117.9,949,1823,2035.9c-3.53,13.46-13.32,24.11-26.27,30.08a47,47,0,0,1-22.88,3.52,49.73,49.73,0,0,1-16.91-5.33L1444.27,1898.4l-195.41,194.85a44.92,44.92,0,0,1-36.92,13,41.22,41.22,0,0,1-15.54-4.46,46.16,46.16,0,0,1-25.9-46.2l25.15-251.15,698.06-699.82-835.93,588.61-272.58-145c-15.9-8.13-25.18-24.33-24.82-42.46a46.74,46.74,0,0,1,27.28-40.15L2054.29,894.67A44.87,44.87,0,0,1,2078,890.5,46.14,46.14,0,0,1,2103.08,901C2117.12,913.32,2122.58,931.31,2117.9,949Z" transform="translate(-127.33 -127.33)"/><path class="g" d="M2117.9,949,1823,2035.9c-3.53,13.46-13.32,24.11-26.27,30.08a47,47,0,0,1-22.88,3.52,49.73,49.73,0,0,1-16.91-5.33L1444.27,1898.4l-195.41,194.85a44.92,44.92,0,0,1-36.92,13,41.22,41.22,0,0,1-15.54-4.46,46.16,46.16,0,0,1-25.9-46.2l25.15-251.15,698.06-699.82-835.93,588.61-272.58-145c-15.9-8.13-25.18-24.33-24.82-42.46a46.74,46.74,0,0,1,27.28-40.15L2054.29,894.67A44.87,44.87,0,0,1,2078,890.5,46.14,46.14,0,0,1,2103.08,901C2117.12,913.32,2122.58,931.31,2117.9,949Z" transform="translate(-127.33 -127.33)"/></svg>