<svg xmlns="http://www.w3.org/2000/svg" xmlns:xlink="http://www.w3.org/1999/xlink" width="1521.73852" height="1973.25493" viewBox="0 0 1521.73852 1973.25493"><defs><style>.a{fill:none;}.b{fill:#ffc107;}.c{fill:#3e2723;}.d{fill:#fff;}.ab,.ad,.e{fill:#241b11;}.f{fill:#734c2b;}.g{fill:#372b1d;}.h,.x{fill:#554231;}.ac,.ae,.i,.z{fill:#bca199;}.i{opacity:0.57;}.j{fill:#53493c;}.k{clip-path:url(#a);}.l{fill:#948169;}.m{clip-path:url(#b);}.n{clip-path:url(#c);}.o{clip-path:url(#d);}.p{clip-path:url(#e);}.q{clip-path:url(#f);}.r{clip-path:url(#g);}.s{clip-path:url(#h);}.t{clip-path:url(#i);}.u{clip-path:url(#j);}.v{clip-path:url(#k);}.w{clip-path:url(#l);}.x{opacity:0.75;}.y{clip-path:url(#m);}.aa{fill:#58463e;}.ab{opacity:0.71;}.ac{opacity:0.48;}.ad{opacity:0.47;}.ae{opacity:0.34;}.af{fill:#e2cabd;}.ag{opacity:0.19;}.ah{clip-path:url(#n);}.ai{fill:#e3cabf;}</style><clipPath id="a" transform="translate(-237.42466 -16.96112)"><path class="a" d="M929.70349,1320.09691c-5.54022-12.18809-26.11064-61.53459,14.37092-99.31833,0,0-20.50587,34.10051,9.62563,96.26981a4.44693,4.44693,0,0,1-4.206,6.37764l-15.94218-.725A4.44655,4.44655,0,0,1,929.70349,1320.09691Z"/></clipPath><clipPath id="b" transform="translate(-237.42466 -16.96112)"><path class="a" d="M967.15517,1281.54917c-12.103,14.86139-12.72535,37.69416-12.72535,37.69416l8.86076,0.71676,8.826,1.06273S974.53583,1299.99251,967.15517,1281.54917Z"/></clipPath><clipPath id="c" transform="translate(-237.42466 -16.96112)"><path class="a" d="M982.80343,1336.36085s9.76155,4.67764,10.56688-24.10756c0.60589-21.65634-16.29172-15.64456-17.03824-5.23017C975.73861,1315.30226,974.36349,1337.68939,982.80343,1336.36085Z"/></clipPath><clipPath id="d" transform="translate(-237.42466 -16.96112)"><path class="a" d="M1025.62787,1337.27745s-10.77518,4.70727-11.57681-24.078c-0.6031-21.65642,18.00691-15.6947,18.7987-5.28163C1033.4792,1316.19586,1034.92812,1338.58084,1025.62787,1337.27745Z"/></clipPath><clipPath id="e" transform="translate(-237.42466 -16.96112)"><path class="a" d="M1042.75569,1282.82148c13.49555,15.4211,14.00827,39.26141,14.00827,39.26141l-9.97548.82131-9.93916,1.18233S1034.3,1302.1434,1042.75569,1282.82148Z"/></clipPath><clipPath id="f" transform="translate(-237.42466 -16.96112)"><path class="a" d="M1081.18907,1320.09691c5.54022-12.18809,26.11064-61.53459-14.37092-99.31833,0,0,20.50587,34.10051-9.62563,96.26981a4.44693,4.44693,0,0,0,4.206,6.37764l15.94218-.725A4.44656,4.44656,0,0,0,1081.18907,1320.09691Z"/></clipPath><clipPath id="g" transform="translate(-237.42466 -16.96112)"><path class="a" d="M956.26341,956.27855a5.10178,5.10178,0,0,0,7.74187-.5c5.18109-8.12349,12.06742-27.67432-7.91079-61.1331l-0.01145-.17438C940.63737,930.2904,950.06126,948.86685,956.26341,956.27855Z"/></clipPath><clipPath id="h" transform="translate(-237.42466 -16.96112)"><path class="a" d="M980.69456,898.16535s-11.76,13.80191-8.13332,32.642,15.16342,17.27459,17.9241,7.89643S987.38672,902.2918,980.69456,898.16535Z"/></clipPath><clipPath id="i" transform="translate(-237.42466 -16.96112)"><path class="a" d="M1025.31062,896.27312s11.76,13.80191,8.13332,32.642-15.16342,17.27459-17.9241,7.89643S1018.61846,900.39957,1025.31062,896.27312Z"/></clipPath><clipPath id="j" transform="translate(-237.42466 -16.96112)"><path class="a" d="M1050.68789,955.33243a5.10178,5.10178,0,0,1-7.74187-.5c-5.18109-8.12349-12.06742-27.67432,7.91079-61.1331l0.01145-.17438C1066.31392,929.34428,1056.89,947.92073,1050.68789,955.33243Z"/></clipPath><clipPath id="k" transform="translate(-237.42466 -16.96112)"><path class="a" d="M1068.52462,916.06467l9.14324,1.36624,9.18722,1.02913s7.61655,15.90238-15.04321,43.78347C1057.07753,929.47586,1068.52462,916.06467,1068.52462,916.06467Z"/></clipPath><clipPath id="l" transform="translate(-237.42466 -16.96112)"><path class="a" d="M1122.35,929.9786c2.73373,17.82336,9.15713,78.14108-42.97361,111.85421a1.9206,1.9206,0,0,1-2.6546-2.66548c9.61015-14.40817,26.00986-49.53712,15.22119-111.68867a7.63243,7.63243,0,0,1,9.87262-8.56346l15.34407,4.97287A7.62084,7.62084,0,0,1,1122.35,929.9786Z"/></clipPath><clipPath id="m" transform="translate(-237.42466 -16.96112)"><path class="a" d="M1003,776.69235v18.92232s-47.46678-2.75323-94.35629,41.62911c-61.35561,58.08208-21.36807,252.41435,9.33335,467.68418,0.77582,5.44017,1.61547,10.89916,2.37235,16.36774,3.96423,28.38348,4.25161,40.99517,7.55355,69.73818C873.823,1153.6912,820.27927,914.00218,864.13178,837.433a54.99155,54.99155,0,0,1,6.91461-9.6504c56.49261-62.33013,123.72771-52.58515,131.46693-51.22274A0.78783,0.78783,0,0,1,1003,776.69235Z"/></clipPath><clipPath id="n" transform="translate(-237.42466 -16.96112)"><path class="a" d="M1496.6919,312.49131c-130.15425-113.65075-224.19579-.55494-250.2007,37.1976-42.11972-25.02975-81.71881-39.12373-112.63413-39.42233-41.99811-.40688-107.17606,18.66685-130.34643,42.49-23.17037-23.8232-88.34833-42.89693-130.34643-42.49-32.13521.31039-73.65269,15.526-117.63127,42.43617-54.22688-69.3432-182.98211-185.93543-332.40314-22.78382-139.80072,152.64726,21.27092,299.39331,77.71538,343.32321-53.07039,164.9656-17.49472,360.77947,229.55436,530.59611l0.01288,0.02056,0.25056,0.16042a1116.88059,1116.88059,0,0,0,107.30518,64.72822l0.14148,0.08061-0.00624-.0082q24.97362,13.30112,52.01687,26.29168l-3.928,19.00063,25.30612,4.36516c5.40483,24.09281,10.91793,48.33681,16.43652,72.55655-0.3988-3.47171-.75243-6.70377-1.07426-9.7611,0.63833,4.02215,1.22151,8.19848,1.72708,12.59944a71.78451,71.78451,0,0,0,7.50853,4.40016c24.43993,13.439,47.8511,17.77086,68.43623,17.42531,22.68479,0.3809,48.80126-4.91722,75.9447-21.82546q6.44328-28.35732,12.82281-56.717c21.06506-15.66866,45.03222-38.6241,45.03222-38.6241l-6.5355-10.66991q24.79917-12.25441,47.77494-24.78346c23.28413-12.37342,47.88535-26.12907,60.67732-35.394,291.35595-182.30994,324.51089-398.6993,258.60222-575.52767C1577.524,490.102,1648.4322,444.99088,1496.6919,312.49131Z"/></clipPath></defs><title>Pihkva 5 Logo</title><path class="b" d="M674.2369,1689.69851L237.42466,20.9883s435.64659,2.71165,561.57541,245.55732S972.49123,1391.44418,972.49123,1391.44418Z" transform="translate(-237.42466 -16.96112)"/><path class="c" d="M699.2369,1689.69851L262.42466,20.9883s435.64659,2.71165,561.57541,245.55732S997.49123,1391.44418,997.49123,1391.44418Z" transform="translate(-237.42466 -16.96112)"/><path class="b" d="M1322.35095,1689.69851L1759.16318,20.9883s-435.64659,2.71165-561.57541,245.55732-173.49115,1124.89856-173.49115,1124.89856Z" transform="translate(-237.42466 -16.96112)"/><path class="c" d="M1297.35095,1689.69851L1734.16318,20.9883s-435.64659,2.71165-561.57541,245.55732S999.09662,1391.44418,999.09662,1391.44418Z" transform="translate(-237.42466 -16.96112)"/><path class="b" d="M997.49123,1990.21605L699.2369,1691.96172l298.25433-298.25433,298.25433,298.25433Z" transform="translate(-237.42466 -16.96112)"/><path class="c" d="M997.49123,1965.21605L699.2369,1666.96172l298.25433-298.25433,298.25433,298.25433Z" transform="translate(-237.42466 -16.96112)"/><path class="b" d="M1643.15479,1906.553a2075.67191,2075.67191,0,0,0-1282.83612,0V1316.31165c426.72565-11.1936,856.11066-11.1936,1282.83624,0Q1643.15491,1611.43207,1643.15479,1906.553Z" transform="translate(-237.42466 -16.96112)"/><path class="c" d="M1643.15479,1853.38342a2253.87433,2253.87433,0,0,0-1282.83612,0V1263.14209H1643.15491Q1643.15491,1558.2627,1643.15479,1853.38342Z" transform="translate(-237.42466 -16.96112)"/><path class="d" d="M642.93909,1548.56824c-0.08282,16.1582-6.49493,31.46069-19.18378,46.41931-12.69769,14.957-27.37323,23.99658-44.01984,26.83362q-19.79059,3.36694-39.51715,7.05273-0.16415,69.72418-.32849,139.44861-25.50851,6.97632-50.84344,14.73694V1392.32031c-0.00055-17.67322,6.3587-33.90662,19.131-48.16882,12.76141-14.27185,27.607-21.14954,44.49939-21.14465h28.41693c15.23242,0.00415,29.21362,6.19873,41.921,18.21362,13.92755,13.27661,20.84845,28.81226,20.75409,47.03149Q643.35407,1468.41022,642.93909,1548.56824Zm-51.77875,33.68713q0.45007-110.78741.90045-221.574-25.61325.53394-51.21326,1.13489-0.2688,114.12415-.53778,228.24817Q565.68781,1585.93048,591.16034,1582.25537Z" transform="translate(-237.42466 -16.96112)"/><path class="d" d="M734.95837,1726.75488q-26.00729,4.01074-51.91217,8.8053,1.162-206.27673,2.32385-412.55334H737.2627Q736.11069,1524.8808,734.95837,1726.75488Z" transform="translate(-237.42466 -16.96112)"/><path class="d" d="M930.66016,1707.71472q-26.2359,1.07648-52.43958,2.93689,0.31357-88.46521.62738-176.93079-25.46329.98749-50.90027,2.38049-0.41592,89.46442-.832,178.92957-26.148,2.6261-52.22681,6.0354,1.07849-199.02978,2.157-398.05945h51.89258q-0.41592,89.465-.83191,178.92944,25.41815-1.16986,50.86121-1.99878,0.31366-88.46558.62738-176.93066h51.89264Q931.074,1515.36078,930.66016,1707.71472Z" transform="translate(-237.42466 -16.96112)"/><path class="d" d="M1128.10425,1733.61182c-15.41333-4.99377-27.93018-13.547-37.53272-25.82117-9.18982-11.10889-13.78992-22.85742-13.81665-35.40112q-0.15473-70.11-.30969-140.21985-25.79187-.59418-51.59509-0.77246,0.05933,87.48944.11853,174.97974-26.2522-.33179-52.50592.12024,0.17651-191.7453.35327-383.49036h51.893q0.05933,87.48981.11853,174.97961,25.775,0.1496,51.54358.64856-0.19391-87.8139-.38782-175.62817h50.65735q0.27447,76.95264.54858,153.90527-13.57416,19.13525-27.18042,38.18042,13.71552,18.962,27.45276,38.19983Q1127.78308,1643.45221,1128.10425,1733.61182Z" transform="translate(-237.42466 -16.96112)"/><path class="d" d="M1323.65808,1633.28052c-25.71728,30.58069-51.4895,60.40442-77.35559,89.91077-26.02759-36.57141-52.0918-71.671-78.135-105.72693q-0.657-147.2287-1.314-294.45752h51.89258q0.76538,144.16168,1.53,288.323,12.80127,17.3031,25.59863,35.01672,12.92468-14.8103,25.8241-29.775-0.83862-146.78229-1.67725-293.5647h51.89246Q1322.786,1478.14331,1323.65808,1633.28052Z" transform="translate(-237.42466 -16.96112)"/><path class="d" d="M1516.44531,1783.05945q-25.33191-7.76038-50.84351-14.73694-0.16443-69.72437-.32849-139.44861-25.64538-4.79187-51.402-9.04529,0.27612,67.66223.55212,135.32483-25.66644-6.19244-51.47534-11.60132-0.926-178.5921-1.85205-357.1842c-0.08118-15.73059,6.42126-30.02649,19.53723-43.28223,13.10644-13.24072,27.70166-20.07349,43.76416-20.07886h28.418c15.64624-.001,30.07568,6.32324,43.26269,19.45093,13.59375,14.474,20.36768,31.964,20.36719,51.90161v388.70007Zm-51.26343-192.995q-0.26862-114.124-.5376-228.24817-25.90814-.60809-51.83057-1.14771,0.4519,110.74933.90393,221.49829Q1439.49634,1585.88062,1465.18189,1590.06445Z" transform="translate(-237.42466 -16.96112)"/><path class="e" d="M1239.24326,360.99675S1342.69,178.01684,1496.69195,312.49133s78.66892,178.93371-1.3629,346.98733Z" transform="translate(-237.42466 -16.96112)"/><path class="f" d="M1253.85106,368.03994s92.1724-152.74976,247.8823-26.33254c150.1919,121.93728-20.4341,289.05575-20.4341,289.05575Z" transform="translate(-237.42466 -16.96112)"/><path class="e" d="M1291.92207,392.54542s71.908-141.14724,199.90065-10.67209c88.81874,90.54148-40.6438,188.89874-57.346,197.26273C1413.71231,589.53427,1291.92207,392.54542,1291.92207,392.54542Z" transform="translate(-237.42466 -16.96112)"/><path class="e" d="M518.92462,686.49524S255.98432,512.4237,423.12978,329.91893s308.43671-14.95938,348.46849,44.92267S518.92462,686.49524,518.92462,686.49524Z" transform="translate(-237.42466 -16.96112)"/><path class="f" d="M535.18742,680.17082S293.93086,527.783,445.717,345.27825C598.38565,161.71238,755.33546,382.973,755.33546,382.973Z" transform="translate(-237.42466 -16.96112)"/><path class="e" d="M541.48683,622.64936s-133.71637-83.121-104.80472-167.14546S611.959,226.0177,709.53578,413.94341Z" transform="translate(-237.42466 -16.96112)"/><path class="f" d="M1131.23631,331.07166c-41.15605-.398-105.01889,18.28838-127.72567,41.62911C980.80385,349.36,916.941,330.67367,875.785,331.07166,667.733,333.08343,58.34064,972.53838,1003.51063,1344.362,1948.68062,972.53838,1339.2883,333.08343,1131.23631,331.07166Z" transform="translate(-237.42466 -16.96112)"/><path class="g" d="M862.23917,942.32195s173.56741-107.67119,278.5223,6.21313c0,0-34.0858,359.82859-45.143,363.7937s-145.09033,37.07918-182.30423-4.86531C913.31423,1307.46348,847.11651,948.3733,862.23917,942.32195Z" transform="translate(-237.42466 -16.96112)"/><path class="f" d="M1092.90913,1316.70705c-3.88852,28.15642-12.7631,75.746-12.77257,75.746-12.63063,9.93422-43.07669,21.60926-76.27587,21.60926-31.58136,0-61.80031-11.01269-75.273-20.19009-3.30194-28.743-9.88692-47.97751-13.85115-76.361,23.11361,5.29823,55.82085,12.2711,88.77409,12.2711C1038.10069,1329.78233,1069.32252,1322.48781,1092.90913,1316.70705Z" transform="translate(-237.42466 -16.96112)"/><path class="f" d="M862.53933,937.53208S849.29371,791.8302,998.78005,792.77632s141.91742,149.48634,141.91742,149.48634S1007.2951,857.58527,862.53933,937.53208Z" transform="translate(-237.42466 -16.96112)"/><path class="h" d="M1061.39849,1323.426s-15.37153,97.57139-88.90261,78.64906c0,0,92.70837,27.23376,123.12258-89.7463Z" transform="translate(-237.42466 -16.96112)"/><path class="i" d="M914.73654,1311.24795s109.58864,106.59575,137.97213,85.46582C1052.70867,1396.71377,941.704,1447.804,914.73654,1311.24795Z" transform="translate(-237.42466 -16.96112)"/><path class="j" d="M1025.62787,1337.27745s-10.77518,4.70727-11.57681-24.078c-0.6031-21.65642,18.00691-15.6947,18.7987-5.28163C1033.4792,1316.19586,1034.92812,1338.58084,1025.62787,1337.27745Z" transform="translate(-237.42466 -16.96112)"/><path class="j" d="M1042.75569,1282.82148c13.49555,15.4211,14.00827,39.26141,14.00827,39.26141l-9.97548.82131-9.93916,1.18233S1034.3,1302.1434,1042.75569,1282.82148Z" transform="translate(-237.42466 -16.96112)"/><path class="j" d="M1004.00172,1297.22443c-8.06408,8.36024-7.80394,33.5213-7.80394,33.5213l7.80394,0.25407,7.80394-.25407S1012.32593,1305.58467,1004.00172,1297.22443Z" transform="translate(-237.42466 -16.96112)"/><path class="j" d="M982.80343,1336.36085s9.76155,4.67764,10.56688-24.10756c0.60589-21.65634-16.29172-15.64456-17.03824-5.23017C975.73861,1315.30226,974.36349,1337.68939,982.80343,1336.36085Z" transform="translate(-237.42466 -16.96112)"/><path class="j" d="M967.15517,1281.54917c-12.103,14.86139-12.72535,37.69416-12.72535,37.69416l8.86076,0.71676,8.826,1.06273S974.53583,1299.99251,967.15517,1281.54917Z" transform="translate(-237.42466 -16.96112)"/><path class="j" d="M929.70349,1320.09691c-5.54022-12.18809-26.11064-61.53459,14.37092-99.31833,0,0-20.50587,34.10051,9.62563,96.26981a4.44693,4.44693,0,0,1-4.206,6.37764l-15.94218-.725A4.44655,4.44655,0,0,1,929.70349,1320.09691Z" transform="translate(-237.42466 -16.96112)"/><path class="j" d="M1081.18907,1320.09691c5.54022-12.18809,26.11064-61.53459-14.37092-99.31833,0,0,20.50587,34.10051-9.62563,96.26981a4.44693,4.44693,0,0,0,4.206,6.37764l15.94218-.725A4.44656,4.44656,0,0,0,1081.18907,1320.09691Z" transform="translate(-237.42466 -16.96112)"/><g class="k"><path class="l" d="M944.01564,1324.08654s-30.52091-49.02156.05877-103.308-30.44481-39.38507-30.44481-39.38507l-27.43737,132.7186Z" transform="translate(-237.42466 -16.96112)"/></g><g class="m"><path class="l" d="M967.15517,1281.54917s-8.24446,27.73078.10029,48.11016-27.84419-9.13777-27.84419-9.13777l20.578-41.91462,8.51554-5.44017Z" transform="translate(-237.42466 -16.96112)"/></g><g class="n"><path class="l" d="M984.62783,1297.6684s-4.7701,15.70831,2.32577,38.17856-23.49075-7.364-23.49075-7.364l12.27937-42.54362,10.97485,6.85934Z" transform="translate(-237.42466 -16.96112)"/></g><path class="l" d="M1001.46071,1324.08654s-0.63708-15.20388,2.36212-17.41149c0,0,4.10408,2.34577,3.47226,17.41149S1001.46071,1324.08654,1001.46071,1324.08654Z" transform="translate(-237.42466 -16.96112)"/><g class="o"><path class="l" d="M1019.59461,1292.56215s10.17075,6.62281,8.515,46.59622,26.25472-17.86268,26.25472-17.86268l-19.86844-51.44033Z" transform="translate(-237.42466 -16.96112)"/></g><g class="p"><path class="l" d="M1042.75569,1282.82148s11.37215,31.50134,2.85711,51.60631,24.83555-13.90623,24.83555-13.90623l-14.90133-51.37578Z" transform="translate(-237.42466 -16.96112)"/></g><g class="q"><path class="l" d="M1066.81815,1220.77858s33.66938,34.64852,1.50143,105.13417,70.01259-27.38156,70.01259-27.38156l-53.92862-88.04461Z" transform="translate(-237.42466 -16.96112)"/></g><path class="j" d="M1122.35,929.9786c2.73373,17.82336,9.15713,78.14108-42.97361,111.85421a1.9206,1.9206,0,0,1-2.6546-2.66548c9.61015-14.40817,26.00986-49.53712,15.22119-111.68867a7.63243,7.63243,0,0,1,9.87262-8.56346l15.34407,4.97287A7.62084,7.62084,0,0,1,1122.35,929.9786Z" transform="translate(-237.42466 -16.96112)"/><path class="j" d="M887.25446,928.78761c-2.71844,16.988-11.41918,85.13511,51.59938,118.18213,0,0-37.01226-35.2793-20.82652-122.56894a5.71441,5.71441,0,0,0-7.38178-6.47192l-19.5083,6.32245A5.71392,5.71392,0,0,0,887.25446,928.78761Z" transform="translate(-237.42466 -16.96112)"/><path class="j" d="M940.31891,916.06467l-9.14324,1.36624L921.98844,918.46s-7.61655,15.90238,15.04321,43.78347C951.766,929.47586,940.31891,916.06467,940.31891,916.06467Z" transform="translate(-237.42466 -16.96112)"/><path class="j" d="M956.26341,956.27855a5.10178,5.10178,0,0,0,7.74187-.5c5.18109-8.12349,12.06742-27.67432-7.91079-61.1331l-0.01145-.17438C940.63737,930.2904,950.06126,948.86685,956.26341,956.27855Z" transform="translate(-237.42466 -16.96112)"/><path class="j" d="M980.69456,898.16535s-11.76,13.80191-8.13332,32.642,15.16342,17.27459,17.9241,7.89643S987.38672,902.2918,980.69456,898.16535Z" transform="translate(-237.42466 -16.96112)"/><path class="j" d="M1001.51,892.46759s-20.85959-4.08045-.12815,49.36144c0.35092,0.90462,2.71852.9565,3.03546,0.03942C1008.35789,930.46592,1021.7089,885.75685,1001.51,892.46759Z" transform="translate(-237.42466 -16.96112)"/><path class="j" d="M1068.52462,916.06467l9.14324,1.36624,9.18722,1.02913s7.61655,15.90238-15.04321,43.78347C1057.07753,929.47586,1068.52462,916.06467,1068.52462,916.06467Z" transform="translate(-237.42466 -16.96112)"/><path class="j" d="M1050.68789,955.33243a5.10178,5.10178,0,0,1-7.74187-.5c-5.18109-8.12349-12.06742-27.67432,7.91079-61.1331l0.01145-.17438C1066.31392,929.34428,1056.89,947.92073,1050.68789,955.33243Z" transform="translate(-237.42466 -16.96112)"/><path class="j" d="M1025.31062,896.27312s11.76,13.80191,8.13332,32.642-15.16342,17.27459-17.9241,7.89643S1018.61846,900.39957,1025.31062,896.27312Z" transform="translate(-237.42466 -16.96112)"/><path class="l" d="M909.37208,907.72943s-32.641,86.80615,29.48176,139.24031c0,0-65.59186-24.91795-51.59938-118.18213Z" transform="translate(-237.42466 -16.96112)"/><path class="l" d="M935.90625,907.96975a104.48245,104.48245,0,0,0,1.12541,54.27376s-22.39178-29.48882-16.2741-47.28393Z" transform="translate(-237.42466 -16.96112)"/><g class="r"><path class="l" d="M956.083,894.47108s-22.82152,54.57209,3.90626,64.29961c0,0-7.05987-26.94075-1.40118-65.24573Z" transform="translate(-237.42466 -16.96112)"/></g><g class="s"><path class="l" d="M981.52567,902.68347s-4.50629,25.70282,4.95487,49.6711-23.49522-16.557-23.49522-16.557l12.601-37.63219Z" transform="translate(-237.42466 -16.96112)"/></g><path class="l" d="M996.41476,906.31025s2.63906,22.71945,5.88409,27.43737c0,0,5.78468-24.44133,4.20782-27.43737S996.41476,906.31025,996.41476,906.31025Z" transform="translate(-237.42466 -16.96112)"/><g class="t"><path class="l" d="M1024.47951,902.68347s7.09924,26.96431-4.25416,47.62118,26.49125-6.724,26.49125-6.724l1.64658-38.602Z" transform="translate(-237.42466 -16.96112)"/></g><g class="u"><path class="l" d="M1044.234,897.48381s16.67435,27.74877-1.9326,70.324,31.06415-25.27549,31.06415-25.27549l-5.83438-44.367Z" transform="translate(-237.42466 -16.96112)"/></g><g class="v"><path class="l" d="M1078.2538,910.09472s5.09235,19.14713-6.44193,52.14879,32.69665-1.05852,32.69665-1.05852l-6.38628-48.725Z" transform="translate(-237.42466 -16.96112)"/></g><g class="w"><path class="l" d="M1106.95266,916.06467s15.41854,88.957-33.60447,127.59011l56.70547,11.19571,10.70781-121.10286Z" transform="translate(-237.42466 -16.96112)"/></g><path class="x" d="M1020.06766,814.672s78.40394,41.42672,116.0739,124.48211C1136.14157,939.15409,1145.90111,763.7167,1020.06766,814.672Z" transform="translate(-237.42466 -16.96112)"/><path class="i" d="M1003.51063,815.32416s-97.45,36.517-130.091,123.82993C873.41967,939.15409,864.90462,764.07494,1003.51063,815.32416Z" transform="translate(-237.42466 -16.96112)"/><path class="e" d="M1003,776.69235v18.92232s-47.46678-2.75323-94.35629,41.62911c-61.35561,58.08208-21.36807,252.41435,9.33335,467.68418,0.77582,5.44017,1.61547,10.89916,2.37235,16.36774,3.96423,28.38348,4.25161,40.99517,7.55355,69.73818C873.823,1153.6912,820.27927,914.00218,864.13178,837.433a54.99155,54.99155,0,0,1,6.91461-9.6504c56.49261-62.33013,123.72771-52.58515,131.46693-51.22274A0.78783,0.78783,0,0,1,1003,776.69235Z" transform="translate(-237.42466 -16.96112)"/><path class="e" d="M1080.47715,1393.87222h0c3.27353-28.38348,4.759-45.12969,8.64752-73.28612,0.738-5.33611,1.476-10.71951,2.23282-16.03668,30.34189-215.35494,68.78139-409.1148,7.34055-467.282C1051.80859,792.88509,1004,795.61467,1004,795.61467V776.69235s0.3892-.03788.70143-0.08518c6.2917-1.15423,74.7533-11.94,131.95544,51.17545,0.94612,1.0407,1.91156,2.23282,2.79138,3.38705C1190.92647,898.817,1136.15606,1148.82815,1080.47715,1393.87222Z" transform="translate(-237.42466 -16.96112)"/><path class="e" d="M1152.68154,957.51405c-30.51272-26.22643-85.68833-43.7484-148.69785-43.7484s-118.18519,17.522-148.69785,43.7484c13.86845-43.76734,75.17136-76.74893,148.69785-76.74893S1138.81309,913.74671,1152.68154,957.51405Z" transform="translate(-237.42466 -16.96112)"/><path class="e" d="M1004.53245,1396.63354c-68.43952-13.08925-84.11922-75.33784-84.11922-75.33784l8.17446,72.57653c27.1435,16.90824,53.26,22.20636,75.94476,21.82546,22.68479,0.3809,48.80126-4.91722,75.9447-21.82546l8.17446-72.57653S1072.972,1383.54429,1004.53245,1396.63354Z" transform="translate(-237.42466 -16.96112)"/><path class="e" d="M1099.08875,1302.40977c0,20.29287-42.1037,36.7486-94.03972,36.7486s-94.03972-16.45573-94.03972-36.7486a4.94335,4.94335,0,0,1,.01864-0.525c18.91036,10.88143,53.93783,18.18344,94.02108,18.18344s75.11067-7.302,94.02108-18.18344A4.94332,4.94332,0,0,1,1099.08875,1302.40977Z" transform="translate(-237.42466 -16.96112)"/><g class="y"><path class="z" d="M908.05182,796.94241S855.49942,878.23769,851.45045,990.67s-83.63285-60.70689-83.63285-60.70689l56.14047-145.30447,80.809-22.44542Z" transform="translate(-237.42466 -16.96112)"/></g><path class="aa" d="M1058.1997,1059.31956l-54.34425,7.998a2.14345,2.14345,0,0,1-.62486-0.0001l-54.22379-7.998a1.92,1.92,0,0,1-.32735-0.07945c-11.87495-3.975-22.14333,9.30111-16.025,20.71745,19.697,36.68918,47.00642,79.50748,39.84624,134.207-7.7812,59.44381,31.04555,56.43942,31.04555,56.43942s40.0881,1.88331,31.24771-56.43942c-6.59045-43.4792,26.58508-79.36916,39.881-134.207,3.05185-12.587-4.29749-24.7015-16.14474-20.71827A1.92684,1.92684,0,0,1,1058.1997,1059.31956Z" transform="translate(-237.42466 -16.96112)"/><path class="e" d="M1029.39032,489.24449c-3.00714,2.36275-6.97717-.91325-4.48381-3.69925,36.06691-40.30008,138.505-111.62564,231.42934-68.134C1298.15923,436.98595,1128.46388,411.401,1029.39032,489.24449Z" transform="translate(-237.42466 -16.96112)"/><path class="e" d="M975.74594,530.36157c3.55194,1.92557,7.202-1.88368,4.29-4.47823-37.94969-33.81216-130.81335-100.02341-233.14006-50.335C721.24093,488.006,850.23152,462.318,975.74594,530.36157Z" transform="translate(-237.42466 -16.96112)"/><path class="e" d="M984.38985,655.86516c1.41992,3.01659,6.38422,1.59191,5.73867-1.60924-4.49348-22.28231-19.52688-67.55805-81.35109-76.369C886.39174,574.69656,964.10835,612.77754,984.38985,655.86516Z" transform="translate(-237.42466 -16.96112)"/><path class="e" d="M1034.2426,656.77591c-1.77824,2.43157-5.1698-1.0359-3.73957-3.821,17.5719-34.2181,50.9332-84.26194,91.918-73.75561C1136.773,582.87838,1087.20927,584.34915,1034.2426,656.77591Z" transform="translate(-237.42466 -16.96112)"/><path class="h" d="M983.69247,454.2887S850.183,369.30443,760.26206,426.50916L790.66627,387.054S862.87659,347.1818,983.69247,454.2887Z" transform="translate(-237.42466 -16.96112)"/><path class="h" d="M1034.047,530.65866s78.89032-46.8911,160.91773-30.91985l87.8367,65.96641-97.17986-36.815S1135.99944,504.01447,1034.047,530.65866Z" transform="translate(-237.42466 -16.96112)"/><path class="h" d="M557.10043,742.23651S490.28378,897.79287,611.565,1054.80168c0,0-47.58675-115.62253-15.5173-186.66548Z" transform="translate(-237.42466 -16.96112)"/><path class="e" d="M889.55288,763.24212s-101.11942-18.17985-157.828,12.90741l-85.64261-57.29085,83.02479,31.92654S814.83,715.10423,889.55288,763.24212Z" transform="translate(-237.42466 -16.96112)"/><path class="e" d="M1160.85389,748.88149l120.91143,35.7772s58.07486-42.58973,115.34252-32.44858c0,0-53.13251-29.6696-122.4403.83559l-31.64988-8.334,8.50638,15.3914Z" transform="translate(-237.42466 -16.96112)"/><path class="e" d="M1480.35315,787.00476s27.91043,104.16764-88.10463,263.31067c-3.50925,4.81379,8.36667-55.82894,5.10366-51.39838-2.37307,3.2222-27.42549,72.58232-29.77809,75.655-19.45431,25.40857-16.679,27.83731-56.55551,62.59057l106.8909-228.014-3.78446,52.27515S1478.46092,898.55159,1480.35315,787.00476Z" transform="translate(-237.42466 -16.96112)"/><path class="h" d="M1277.0879,926.17869s-14.34146,251.66688-152.93978,365.31587c0,0,98.63106-48.58451,120.67692-67.36094C1264.87521,1207.05691,1302.01026,1060.52718,1277.0879,926.17869Z" transform="translate(-237.42466 -16.96112)"/><path class="ab" d="M758.27862,934.22068s-122.80715,120.581-27.86619,269.63815l51.409,32.90514,56.28819,32.06409S717.78357,1112.37009,758.27862,934.22068Z" transform="translate(-237.42466 -16.96112)"/><path class="h" d="M1459.86014,759.89092s-41.634,114.45351-238.40182,113.91458C1221.45832,873.8055,1408.25554,820.02955,1459.86014,759.89092Z" transform="translate(-237.42466 -16.96112)"/><path class="h" d="M621.9925,800.82027s23.97419,79.5913,214.6522,93.92991c0,0-192.07679-51.24831-208.41555-132.96414Z" transform="translate(-237.42466 -16.96112)"/><path class="ac" d="M528.20739,641.138s28.73644-65.96835,160.24658-83.94456c0,0-9.88029-120.16906,115.68966-207.67864C804.14363,349.51477,632.87332,381.64238,528.20739,641.138Z" transform="translate(-237.42466 -16.96112)"/><path class="ad" d="M1249.84974,374.72526s91.7903,92.43565,77.2326,181.522c0,0,90.77059,4.47424,147.56584,75.56112C1474.64818,631.80841,1427.12237,452.439,1249.84974,374.72526Z" transform="translate(-237.42466 -16.96112)"/><path class="e" d="M1039.76587,1329.65933c893.05784-373.72533,296.806-996.60084,91.47044-998.58767-41.15605-.39741-105.01889,18.28838-127.72567,41.62911C980.80385,349.36,916.941,330.67425,875.785,331.07166c-205.33561,1.98682-801.5874,624.86233,91.4705,998.58767C54.78324,948.30836,663.55219,312.29122,873.1642,310.26658c41.99811-.40688,107.17606,18.66685,130.34643,42.49,23.17037-23.8232,88.34833-42.89693,130.34643-42.49C1343.46914,312.29122,1952.238,948.30836,1039.76587,1329.65933Z" transform="translate(-237.42466 -16.96112)"/><path class="h" d="M1091.12639,765.53937c-16.576-47.35987-87.61576-36.7039-87.61576-36.7039s-71.0398-10.656-87.61576,36.7039,37.8879,68.67181,87.61576,73.4078C1053.2385,834.21118,1107.70234,812.89924,1091.12639,765.53937Z" transform="translate(-237.42466 -16.96112)"/><path class="ae" d="M1003.51063,728.83547s-102.05833-11.82986-89.00949,64.39134C917.41407,810.24186,987.11129,750.99119,1003.51063,728.83547Z" transform="translate(-237.42466 -16.96112)"/><polygon class="e" points="733.37 770.718 695.204 749.707 723.849 710.144 763.382 738.839 733.37 770.718"/><polygon class="e" points="799.033 770.713 772.508 738.383 810.165 709.723 838.619 746.239 799.033 770.713"/><path class="z" d="M1073.45141,817.35647s-112.48026,55.36666-158.95027-24.12966C914.50114,793.22681,953.36648,840.87056,1073.45141,817.35647Z" transform="translate(-237.42466 -16.96112)"/><path class="e" d="M1092.49615,792.77173s-103.64178,43.79617-177.995.45508c0,0,67.73594,58.48634,158.95027,24.12966C1073.45141,817.35647,1094.75436,806.32814,1092.49615,792.77173Z" transform="translate(-237.42466 -16.96112)"/><path class="e" d="M1003.98369,766.75813S991.535,815.438,914.50114,793.22681c0,0,81.54177,59.14565,177.995-.45508C1092.49615,792.77173,1034.73246,810.27947,1003.98369,766.75813Z" transform="translate(-237.42466 -16.96112)"/><path class="h" d="M893.53946,699.62618l-8.50818,31.17954S783.83475,710.93728,727.976,735.5363c0,0-26.96431-30.74877-27.91043-93.66549C700.06559,641.8708,771.40463,688.70355,893.53946,699.62618Z" transform="translate(-237.42466 -16.96112)"/><path class="e" d="M723.564,616.06893s102.335,81.14967,162.82774,86.464l-4.69951,22.18337s-107.58061-27.00892-149.19677.78339C732.49546,725.49971,697.588,664.90458,723.564,616.06893Z" transform="translate(-237.42466 -16.96112)"/><path class="af" d="M739.6087,716.40288c-5.14057-56.64612,15.3114-66.21907,15.3114-66.21907-18.9899-12.43444-27.65862-22.4355-27.65862-22.4355C706.53507,663.011,739.6087,716.40288,739.6087,716.40288Z" transform="translate(-237.42466 -16.96112)"/><path class="z" d="M889.55391,685.21476S768.59034,656.17855,739.8643,605.74512c0,0,97.66588,61.812,164.77574,59.01569a3.25189,3.25189,0,0,1,2.25527,5.72732Z" transform="translate(-237.42466 -16.96112)"/><path class="h" d="M1133.60847,699.62618l8.50818,31.17954s101.19653-19.86844,157.05527,4.73058c0,0,26.96431-30.74877,27.91043-93.66549C1327.08234,641.8708,1255.7433,688.70355,1133.60847,699.62618Z" transform="translate(-237.42466 -16.96112)"/><path class="e" d="M1303.58392,616.06893s-102.335,81.14967-162.82774,86.464l4.69951,22.18337s107.58061-27.00892,149.19677.78339C1294.65247,725.49971,1329.56,664.90458,1303.58392,616.06893Z" transform="translate(-237.42466 -16.96112)"/><path class="af" d="M1287.53923,716.40288c5.14057-56.64612-15.3114-66.21907-15.3114-66.21907,18.9899-12.43444,27.65862-22.4355,27.65862-22.4355C1320.61286,663.011,1287.53923,716.40288,1287.53923,716.40288Z" transform="translate(-237.42466 -16.96112)"/><path class="z" d="M1147.50534,679.17721s115.98336-20.76817,145.98845-69.12586c0,0-105.97095,60.87166-168.62208,46.05025Z" transform="translate(-237.42466 -16.96112)"/><g class="ag"><g class="ah"><path class="ai" d="M1003.51063,352.75663S151.764,662.09172,524.25809,1506.99434c229.72127,521.0609-238.84958-487.15016-238.84958-487.15016l-45.41357-709.584L575.45766,16.96112Z" transform="translate(-237.42466 -16.96112)"/></g></g></svg>